<?xml version="1.0" encoding="UTF-8" standalone="no"?>
<svg
   xmlns:dc="http://purl.org/dc/elements/1.1/"
   xmlns:cc="http://creativecommons.org/ns#"
   xmlns:rdf="http://www.w3.org/1999/02/22-rdf-syntax-ns#"
   xmlns:svg="http://www.w3.org/2000/svg"
   xmlns="http://www.w3.org/2000/svg"
   xmlns:sodipodi="http://sodipodi.sourceforge.net/DTD/sodipodi-0.dtd"
   xmlns:inkscape="http://www.inkscape.org/namespaces/inkscape"
   version="1.1"
   id="svg2"
   xml:space="preserve"
   width="32"
   height="34"
   viewBox="0 0 19.786667 21.959999"
   sodipodi:docname="awards.eps"><metadata
     id="metadata8"><rdf:RDF><cc:Work
         rdf:about=""><dc:format>image/svg+xml</dc:format><dc:type
           rdf:resource="http://purl.org/dc/dcmitype/StillImage" /></cc:Work></rdf:RDF></metadata><defs
     id="defs6" /><sodipodi:namedview
     pagecolor="#ffffff"
     bordercolor="#666666"
     borderopacity="1"
     objecttolerance="10"
     gridtolerance="10"
     guidetolerance="10"
     inkscape:pageopacity="0"
     inkscape:pageshadow="2"
     inkscape:window-width="640"
     inkscape:window-height="480"
     id="namedview4" /><g
     id="g10"
     inkscape:groupmode="layer"
     inkscape:label="ink_ext_XXXXXX"
     transform="matrix(1.3333333,0,0,-1.3333333,0,21.96)"><g
       id="g12"
       transform="scale(0.1)"><path
         d="m 130.047,133.336 h -6.582 V 75.8438 c 0,-15.9297 -11.606,-29.0899 -25.9767,-29.0899 H 51.0859 c -14.375,0 -25.9765,13.1602 -25.9765,29.0899 v 57.4922 h -6.7539 c -5.543,0 -10.21487,5.195 -10.21487,11.602 0,6.406 4.67187,11.601 10.21487,11.601 H 130.047 c 5.711,0 10.215,-5.195 10.215,-11.601 0,-6.407 -4.504,-11.602 -10.215,-11.602 z m 0,31.34 H 18.3555 C 8.3125,164.676 0,155.844 0,144.938 0,134.551 7.44922,126.063 16.9688,125.195 V 75.8438 c 0,-20.4297 15.2382,-37.2266 34.1171,-37.2266 H 61.9922 V 9.86719 h -8.1367 c -2.7696,0 -5.0196,-2.2461 -5.0196,-4.84375 0,-2.77344 2.25,-5.01953375 5.0196,-5.01953375 h 39.4804 c 2.7735,0 5.0196,2.24609375 5.0196,5.01953375 0,2.59765 -2.2461,4.84375 -5.0196,4.84375 H 85.1914 V 38.6172 h 12.2969 c 18.6997,0 34.1207,16.7969 34.1207,37.2266 v 49.3512 c 9.344,0.868 16.793,9.356 16.793,19.743 0,10.906 -8.14,19.738 -18.355,19.738"
         style="fill:#fff;fill-opacity:1;fill-rule:nonzero;stroke:none"
         id="path14" /></g></g></svg>
