<?xml version="1.0" encoding="UTF-8" standalone="no"?>
<svg
   xmlns:dc="http://purl.org/dc/elements/1.1/"
   xmlns:cc="http://creativecommons.org/ns#"
   xmlns:rdf="http://www.w3.org/1999/02/22-rdf-syntax-ns#"
   xmlns:svg="http://www.w3.org/2000/svg"
   xmlns="http://www.w3.org/2000/svg"
   xmlns:sodipodi="http://sodipodi.sourceforge.net/DTD/sodipodi-0.dtd"
   xmlns:inkscape="http://www.inkscape.org/namespaces/inkscape"
   version="1.1"
   id="svg2"
   xml:space="preserve"
   width="423.13333"
   height="137.18668"
   viewBox="0 0 423.13333 137.18668"
   sodipodi:docname="logo.eps"><metadata
     id="metadata8"><rdf:RDF><cc:Work
         rdf:about=""><dc:format>image/svg+xml</dc:format><dc:type
           rdf:resource="http://purl.org/dc/dcmitype/StillImage" /></cc:Work></rdf:RDF></metadata><defs
     id="defs6" /><sodipodi:namedview
     pagecolor="#ffffff"
     bordercolor="#666666"
     borderopacity="1"
     objecttolerance="10"
     gridtolerance="10"
     guidetolerance="10"
     inkscape:pageopacity="0"
     inkscape:pageshadow="2"
     inkscape:window-width="640"
     inkscape:window-height="480"
     id="namedview4" /><g
     id="g10"
     inkscape:groupmode="layer"
     inkscape:label="ink_ext_XXXXXX"
     transform="matrix(1.3333333,0,0,-1.3333333,0,137.18667)"><g
       id="g12"
       transform="scale(0.1)"><path
         d="m 1633.24,582.832 v 0 c -87.34,-87.344 -228.94,-87.344 -316.28,0 v 0 c -75.57,75.57 -75.57,198.094 0,273.672 l 158.14,158.136 158.14,-158.136 c 75.58,-75.578 75.58,-198.102 0,-273.672 z"
         style="fill:none;stroke:#ffffff;stroke-width:20.1343;stroke-linecap:butt;stroke-linejoin:miter;stroke-miterlimit:10;stroke-dasharray:none;stroke-opacity:1"
         id="path14" /><path
         d="M 1615.19,564.773 1475.1,704.863 1335.01,564.773"
         style="fill:none;stroke:#ffffff;stroke-width:20.1343;stroke-linecap:butt;stroke-linejoin:miter;stroke-miterlimit:10;stroke-dasharray:none;stroke-opacity:1"
         id="path16" /><path
         d="M 1659.65,609.242 1475.1,793.797 1290.55,609.242"
         style="fill:none;stroke:#ffffff;stroke-width:20.1343;stroke-linecap:butt;stroke-linejoin:miter;stroke-miterlimit:10;stroke-dasharray:none;stroke-opacity:1"
         id="path18" /><path
         d="M 1684.05,672.941 1475.1,881.895 1266.05,672.844"
         style="fill:none;stroke:#ffffff;stroke-width:20.1343;stroke-linecap:butt;stroke-linejoin:miter;stroke-miterlimit:10;stroke-dasharray:none;stroke-opacity:1"
         id="path20" /><path
         d="M 1475.1,1014.64 V 883.52"
         style="fill:none;stroke:#ffffff;stroke-width:20.1343;stroke-linecap:butt;stroke-linejoin:miter;stroke-miterlimit:10;stroke-dasharray:none;stroke-opacity:1"
         id="path22" /><path
         d="M 1475.1,704.863 V 522.941"
         style="fill:none;stroke:#ffffff;stroke-width:20.1343;stroke-linecap:butt;stroke-linejoin:miter;stroke-miterlimit:10;stroke-dasharray:none;stroke-opacity:1"
         id="path24" /><path
         d="m 1316.96,446.055 v 0 c 87.34,87.343 228.94,87.343 316.28,0 v 0 c 75.58,-75.567 75.58,-198.098 0,-273.672 L 1475.1,14.25 1316.96,172.383 c -75.57,75.574 -75.57,198.105 0,273.672 z"
         style="fill:none;stroke:#ffffff;stroke-width:20.1343;stroke-linecap:butt;stroke-linejoin:miter;stroke-miterlimit:10;stroke-dasharray:none;stroke-opacity:1"
         id="path26" /><path
         d="M 1335.01,464.109 1475.1,324.023 1615.19,464.109"
         style="fill:none;stroke:#ffffff;stroke-width:20.1343;stroke-linecap:butt;stroke-linejoin:miter;stroke-miterlimit:10;stroke-dasharray:none;stroke-opacity:1"
         id="path28" /><path
         d="M 1290.55,419.637 1475.1,235.086 1659.65,419.637"
         style="fill:none;stroke:#ffffff;stroke-width:20.1343;stroke-linecap:butt;stroke-linejoin:miter;stroke-miterlimit:10;stroke-dasharray:none;stroke-opacity:1"
         id="path30" /><path
         d="M 1266.15,355.938 1475.1,146.992 1684.15,356.035"
         style="fill:none;stroke:#ffffff;stroke-width:20.1343;stroke-linecap:butt;stroke-linejoin:miter;stroke-miterlimit:10;stroke-dasharray:none;stroke-opacity:1"
         id="path32" /><path
         d="M 1475.1,14.25 V 145.371"
         style="fill:none;stroke:#ffffff;stroke-width:20.1343;stroke-linecap:butt;stroke-linejoin:miter;stroke-miterlimit:10;stroke-dasharray:none;stroke-opacity:1"
         id="path34" /><path
         d="M 1475.1,324.023 V 505.941"
         style="fill:none;stroke:#ffffff;stroke-width:20.1343;stroke-linecap:butt;stroke-linejoin:miter;stroke-miterlimit:10;stroke-dasharray:none;stroke-opacity:1"
         id="path36" /><path
         d="m 1543.49,356.297 v 0 c -87.34,87.344 -87.34,228.945 0,316.285 v 0 c 75.57,75.574 198.09,75.574 273.67,0 L 1975.3,514.441 1817.16,356.297 c -75.58,-75.567 -198.1,-75.567 -273.67,0 z"
         style="fill:none;stroke:#ffffff;stroke-width:20.1343;stroke-linecap:butt;stroke-linejoin:miter;stroke-miterlimit:10;stroke-dasharray:none;stroke-opacity:1"
         id="path38" /><path
         d="m 1525.43,374.355 140.09,140.086 -140.09,140.09"
         style="fill:none;stroke:#ffffff;stroke-width:20.1343;stroke-linecap:butt;stroke-linejoin:miter;stroke-miterlimit:10;stroke-dasharray:none;stroke-opacity:1"
         id="path40" /><path
         d="m 1569.9,329.891 184.55,184.55 -184.55,184.555"
         style="fill:none;stroke:#ffffff;stroke-width:20.1343;stroke-linecap:butt;stroke-linejoin:miter;stroke-miterlimit:10;stroke-dasharray:none;stroke-opacity:1"
         id="path42" /><path
         d="m 1633.6,305.496 208.95,208.945 -209.04,209.047"
         style="fill:none;stroke:#ffffff;stroke-width:20.1343;stroke-linecap:butt;stroke-linejoin:miter;stroke-miterlimit:10;stroke-dasharray:none;stroke-opacity:1"
         id="path44" /><path
         d="M 1975.3,514.441 H 1844.18"
         style="fill:none;stroke:#ffffff;stroke-width:20.1343;stroke-linecap:butt;stroke-linejoin:miter;stroke-miterlimit:10;stroke-dasharray:none;stroke-opacity:1"
         id="path46" /><path
         d="M 1665.52,514.441 H 1483.6"
         style="fill:none;stroke:#ffffff;stroke-width:20.1343;stroke-linecap:butt;stroke-linejoin:miter;stroke-miterlimit:10;stroke-dasharray:none;stroke-opacity:1"
         id="path48" /><path
         d="m 1406.71,672.582 v 0 c 87.34,-87.34 87.34,-228.941 0,-316.285 v 0 c -75.57,-75.567 -198.1,-75.567 -273.67,0 L 974.898,514.441 1133.04,672.582 c 75.57,75.574 198.1,75.574 273.67,0 z"
         style="fill:none;stroke:#ffffff;stroke-width:20.1343;stroke-linecap:butt;stroke-linejoin:miter;stroke-miterlimit:10;stroke-dasharray:none;stroke-opacity:1"
         id="path50" /><path
         d="M 1424.77,654.531 1284.68,514.441 1424.77,374.355"
         style="fill:none;stroke:#ffffff;stroke-width:20.1343;stroke-linecap:butt;stroke-linejoin:miter;stroke-miterlimit:10;stroke-dasharray:none;stroke-opacity:1"
         id="path52" /><path
         d="M 1380.3,698.996 1195.75,514.441 1380.3,329.891"
         style="fill:none;stroke:#ffffff;stroke-width:20.1343;stroke-linecap:butt;stroke-linejoin:miter;stroke-miterlimit:10;stroke-dasharray:none;stroke-opacity:1"
         id="path54" /><path
         d="M 1316.6,723.391 1107.65,514.441 1316.69,305.398"
         style="fill:none;stroke:#ffffff;stroke-width:20.1343;stroke-linecap:butt;stroke-linejoin:miter;stroke-miterlimit:10;stroke-dasharray:none;stroke-opacity:1"
         id="path56" /><path
         d="M 974.898,514.441 H 1106.03"
         style="fill:none;stroke:#ffffff;stroke-width:20.1343;stroke-linecap:butt;stroke-linejoin:miter;stroke-miterlimit:10;stroke-dasharray:none;stroke-opacity:1"
         id="path58" /><path
         d="M 1284.68,514.441 H 1466.6"
         style="fill:none;stroke:#ffffff;stroke-width:20.1343;stroke-linecap:butt;stroke-linejoin:miter;stroke-miterlimit:10;stroke-dasharray:none;stroke-opacity:1"
         id="path60" /><path
         d="M 21.6016,423.816 H 0 V 636.219 H 128.102 V 617.02 H 21.6016 v -73.504 h 99.0004 v -19.2 H 21.6016 v -100.5"
         style="fill:#ffffff;fill-opacity:1;fill-rule:nonzero;stroke:none"
         id="path62" /><path
         d="m 229.199,541.719 h 37.5 c 17.403,0 30.797,3.152 40.199,9.453 9.403,6.297 14.102,15.742 14.102,28.348 0,6.992 -1.305,12.902 -3.898,17.695 -2.606,4.805 -6.204,8.703 -10.801,11.699 -4.606,3 -10.203,5.207 -16.805,6.602 -6.598,1.398 -13.898,2.101 -21.898,2.101 h -38.399 z m 0,-117.903 H 207.598 V 636.219 H 270 c 10.395,0 20.051,-1.004 28.949,-2.996 8.899,-2.004 16.598,-5.254 23.102,-9.758 6.496,-4.5 11.547,-10.352 15.144,-17.547 3.606,-7.199 5.403,-16.008 5.403,-26.398 0,-7.801 -1.403,-14.903 -4.2,-21.297 -2.8,-6.407 -6.597,-11.953 -11.402,-16.653 -4.801,-4.707 -10.496,-8.457 -17.098,-11.25 -6.597,-2.8 -13.8,-4.609 -21.597,-5.398 L 350.398,423.816 H 324 l -58.801,99.297 h -36 v -99.297"
         style="fill:#ffffff;fill-opacity:1;fill-rule:nonzero;stroke:none"
         id="path64" /><path
         d="m 447.898,443.016 h 113.704 v -19.2 H 426.301 V 636.219 H 558.004 V 617.02 H 447.898 V 544.121 H 550.801 V 524.922 H 447.898 v -81.906"
         style="fill:#ffffff;fill-opacity:1;fill-rule:nonzero;stroke:none"
         id="path66" /><path
         d="m 664.496,443.016 h 113.703 v -19.2 H 642.895 V 636.219 H 774.602 V 617.02 H 664.496 V 544.121 H 767.398 V 524.922 H 664.496 v -81.906"
         style="fill:#ffffff;fill-opacity:1;fill-rule:nonzero;stroke:none"
         id="path68" /><path
         d="m 2263.31,602.02 c -4.6,6.398 -10.5,11.543 -17.7,15.449 -7.2,3.898 -15.9,5.851 -26.1,5.851 -5.2,0 -10.5,-0.8 -15.9,-2.402 -5.4,-1.602 -10.3,-4.055 -14.7,-7.355 -4.4,-3.301 -7.95,-7.45 -10.65,-12.442 -2.7,-5.008 -4.05,-10.906 -4.05,-17.703 0,-6.797 1.3,-12.402 3.89,-16.797 2.58,-4.406 6.03,-8.156 10.32,-11.25 4.29,-3.105 9.18,-5.656 14.66,-7.656 5.48,-2.004 11.22,-4.004 17.2,-5.996 7.38,-2.403 14.81,-5 22.29,-7.805 7.48,-2.801 14.21,-6.445 20.19,-10.945 5.99,-4.504 10.87,-10.207 14.66,-17.102 3.79,-6.902 5.69,-15.652 5.69,-26.25 0,-10.605 -2.03,-19.754 -6.07,-27.449 -4.04,-7.707 -9.3,-14.055 -15.75,-19.055 -6.46,-5 -13.83,-8.699 -22.13,-11.093 -8.3,-2.403 -16.65,-3.602 -25.05,-3.602 -6.4,0 -12.8,0.652 -19.2,1.953 -6.4,1.297 -12.5,3.25 -18.3,5.848 -5.8,2.597 -11.2,5.898 -16.2,9.902 -5,3.996 -9.4,8.594 -13.2,13.801 l 18.6,13.797 c 4.6,-7.606 11.05,-13.953 19.35,-19.051 8.3,-5.098 18.04,-7.648 29.25,-7.648 5.39,0 10.9,0.851 16.5,2.55 5.59,1.7 10.65,4.297 15.14,7.801 4.51,3.496 8.21,7.793 11.11,12.891 2.9,5.109 4.35,11.054 4.35,17.851 0,7.403 -1.45,13.555 -4.35,18.457 -2.9,4.895 -6.75,8.996 -11.55,12.297 -4.8,3.301 -10.31,6.043 -16.5,8.25 -6.2,2.199 -12.7,4.395 -19.5,6.602 -7,2.199 -13.91,4.699 -20.7,7.5 -6.8,2.793 -12.9,6.445 -18.3,10.949 -5.4,4.5 -9.75,10.047 -13.05,16.648 -3.3,6.602 -4.95,14.7 -4.95,24.297 0,10.207 2.05,19.004 6.15,26.407 4.09,7.394 9.45,13.496 16.04,18.3 6.61,4.797 13.91,8.293 21.91,10.5 8,2.196 15.9,3.301 23.7,3.301 14.39,0 26.7,-2.551 36.89,-7.656 10.21,-5.098 17.91,-11.152 23.11,-18.145 l -17.1,-13.8"
         style="fill:#ffffff;fill-opacity:1;fill-rule:nonzero;stroke:none"
         id="path70" /><path
         d="m 2390.21,540.82 h 36.6 c 17,0 29.9,3.301 38.7,9.903 8.8,6.59 13.2,16.191 13.2,28.797 0,13.195 -4.55,22.843 -13.65,28.945 -9.1,6.105 -21.86,9.152 -38.25,9.152 h -36.6 z m -21.61,95.399 h 60 c 10.8,0 20.61,-1.153 29.41,-3.457 8.8,-2.293 16.35,-5.801 22.64,-10.496 6.3,-4.7 11.16,-10.598 14.56,-17.696 3.39,-7.101 5.1,-15.449 5.1,-25.05 0,-9.598 -1.76,-17.957 -5.25,-25.047 -3.51,-7.11 -8.4,-13.008 -14.7,-17.707 -6.3,-4.696 -13.9,-8.25 -22.8,-10.645 -8.91,-2.402 -18.75,-3.601 -29.55,-3.601 h -37.8 v -98.704 h -21.61 v 212.403"
         style="fill:#ffffff;fill-opacity:1;fill-rule:nonzero;stroke:none"
         id="path72" /><path
         d="m 2603.2,423.816 h -21.6 v 212.403 h 21.6 V 423.816"
         style="fill:#ffffff;fill-opacity:1;fill-rule:nonzero;stroke:none"
         id="path74" /><path
         d="m 2720.21,541.719 h 37.5 c 17.4,0 30.79,3.152 40.19,9.453 9.4,6.297 14.1,15.742 14.1,28.348 0,6.992 -1.3,12.902 -3.89,17.695 -2.61,4.805 -6.21,8.703 -10.81,11.699 -4.6,3 -10.2,5.207 -16.8,6.602 -6.59,1.398 -13.9,2.101 -21.9,2.101 h -38.39 z m 0,-117.903 h -21.61 v 212.403 h 62.41 c 10.39,0 20.04,-1.004 28.94,-2.996 8.9,-2.004 16.6,-5.254 23.11,-9.758 6.49,-4.5 11.54,-10.352 15.14,-17.547 3.61,-7.199 5.4,-16.008 5.4,-26.398 0,-7.801 -1.4,-14.903 -4.2,-21.297 -2.8,-6.407 -6.6,-11.953 -11.4,-16.653 -4.8,-4.707 -10.5,-8.457 -17.1,-11.25 -6.59,-2.8 -13.8,-4.609 -21.59,-5.398 l 62.1,-101.106 H 2815 l -58.8,99.297 h -35.99 v -99.297"
         style="fill:#ffffff;fill-opacity:1;fill-rule:nonzero;stroke:none"
         id="path76" /><path
         d="m 2938.91,423.816 h -21.61 v 212.403 h 21.61 V 423.816"
         style="fill:#ffffff;fill-opacity:1;fill-rule:nonzero;stroke:none"
         id="path78" /><path
         d="m 3102.4,423.816 h -21.6 V 617.02 h -71.1 v 19.199 h 163.81 V 617.02 H 3102.4 V 423.816"
         style="fill:#ffffff;fill-opacity:1;fill-rule:nonzero;stroke:none"
         id="path80" /><path
         d="m 605.645,229.668 v -84.297 h -25.649 v 84.297 h -30 v 21.902 h 85.649 v -21.902 h -30"
         style="fill:#ffffff;fill-opacity:1;fill-rule:nonzero;stroke:none"
         id="path82" /><path
         d="m 703.141,219.023 c 0,2.5 -0.528,4.52 -1.582,6.075 -1.055,1.543 -2.414,2.742 -4.071,3.593 -1.66,0.848 -3.519,1.426 -5.578,1.727 -2.062,0.305 -4.043,0.449 -5.953,0.449 h -13.715 v -24.746 h 12.207 c 2.11,0 4.274,0.176 6.485,0.527 2.211,0.344 4.218,0.969 6.031,1.875 1.805,0.899 3.289,2.2 4.441,3.899 1.157,1.699 1.735,3.894 1.735,6.601 z m 1.047,-73.652 -23.055,42.149 h -8.738 V 145.371 H 647.344 V 251.57 h 40.5 c 5.094,0 10.07,-0.527 14.926,-1.57 4.847,-1.055 9.199,-2.832 13.046,-5.332 3.848,-2.5 6.922,-5.801 9.227,-9.895 2.297,-4.101 3.449,-9.207 3.449,-15.3 0,-7.2 -1.949,-13.254 -5.851,-18.157 -3.903,-4.902 -9.301,-8.398 -16.2,-10.496 l 27.747,-45.449 h -30"
         style="fill:#ffffff;fill-opacity:1;fill-rule:nonzero;stroke:none"
         id="path84" /><path
         d="m 790.289,223.223 -13.496,-36.457 h 26.699 z m 28.5,-77.852 -8.246,20.848 h -41.105 l -7.797,-20.848 h -27.903 l 44.555,106.199 h 24.895 l 44.101,-106.199 h -28.5"
         style="fill:#ffffff;fill-opacity:1;fill-rule:nonzero;stroke:none"
         id="path86" /><path
         d="M 904.285,145.371 H 878.637 L 838.438,251.57 h 28.796 l 24.606,-75.3 h 0.598 l 24.453,75.3 h 28.347 L 904.285,145.371"
         style="fill:#ffffff;fill-opacity:1;fill-rule:nonzero;stroke:none"
         id="path88" /><path
         d="M 953.941,145.371 V 251.57 h 71.399 v -21.601 h -46.652 v -20.098 h 44.102 v -20.555 h -44.102 v -22.043 h 49.352 v -21.902 h -74.099"
         style="fill:#ffffff;fill-opacity:1;fill-rule:nonzero;stroke:none"
         id="path90" /><path
         d="M 1044.99,145.371 V 251.57 h 25.8 v -83.847 h 41.1 v -22.352 h -66.9"
         style="fill:#ffffff;fill-opacity:1;fill-rule:nonzero;stroke:none"
         id="path92" /><path
         d="m 1898.62,223.223 -13.49,-36.457 h 26.7 z m 28.51,-77.852 -8.25,20.848 h -41.11 l -7.79,-20.848 h -27.9 l 44.55,106.199 h 24.89 l 44.11,-106.199 h -28.5"
         style="fill:#ffffff;fill-opacity:1;fill-rule:nonzero;stroke:none"
         id="path94" /><path
         d="m 2037.9,145.223 c -6.95,-1.7 -14.52,-2.547 -22.72,-2.547 -8.5,0 -16.33,1.347 -23.48,4.043 -7.15,2.703 -13.3,6.504 -18.45,11.406 -5.14,4.891 -9.18,10.77 -12.07,17.617 -2.91,6.856 -4.35,14.481 -4.35,22.879 0,8.496 1.47,16.203 4.42,23.098 2.95,6.902 7.03,12.773 12.23,17.625 5.19,4.855 11.3,8.574 18.3,11.172 7,2.609 14.55,3.906 22.64,3.906 8.41,0 16.21,-1.277 23.41,-3.828 7.2,-2.547 13.05,-5.977 17.55,-10.274 l -16.2,-18.445 c -2.5,2.891 -5.8,5.273 -9.9,7.117 -4.1,1.856 -8.75,2.774 -13.95,2.774 -4.5,0 -8.65,-0.821 -12.45,-2.469 -3.81,-1.652 -7.11,-3.957 -9.9,-6.906 -2.8,-2.95 -4.98,-6.446 -6.52,-10.496 -1.56,-4.055 -2.33,-8.477 -2.33,-13.274 0,-4.902 0.69,-9.402 2.1,-13.504 1.4,-4.101 3.47,-7.629 6.22,-10.566 2.76,-2.961 6.15,-5.254 10.21,-6.906 4.04,-1.649 8.67,-2.469 13.86,-2.469 3.01,0 5.85,0.222 8.56,0.672 2.69,0.449 5.19,1.172 7.5,2.168 v 19.355 h -20.26 v 20.695 h 43.8 v -56.25 c -5.19,-2.695 -11.27,-4.894 -18.22,-6.593"
         style="fill:#ffffff;fill-opacity:1;fill-rule:nonzero;stroke:none"
         id="path96" /><path
         d="M 2077.13,145.371 V 251.57 h 71.4 v -21.601 h -46.65 v -20.098 h 44.1 v -20.555 h -44.1 v -22.043 h 49.34 v -21.902 h -74.09"
         style="fill:#ffffff;fill-opacity:1;fill-rule:nonzero;stroke:none"
         id="path98" /><path
         d="m 2235.67,145.371 -42.75,69.453 h -0.45 l 0.61,-69.453 h -24.91 V 251.57 h 29.25 l 42.6,-69.297 h 0.46 l -0.61,69.297 h 24.91 V 145.371 h -29.11"
         style="fill:#ffffff;fill-opacity:1;fill-rule:nonzero;stroke:none"
         id="path100" /><path
         d="m 2362.72,147.246 c -6.9,-3.156 -14.85,-4.726 -23.84,-4.726 -8.21,0 -15.78,1.347 -22.73,4.05 -6.95,2.696 -12.98,6.524 -18.07,11.477 -5.1,4.949 -9.11,10.879 -12.01,17.773 -2.9,6.903 -4.34,14.5 -4.34,22.801 0,8.496 1.47,16.203 4.42,23.098 2.95,6.902 7.02,12.773 12.23,17.625 5.19,4.855 11.3,8.574 18.3,11.172 6.99,2.609 14.54,3.906 22.65,3.906 7.5,0 14.87,-1.328 22.12,-3.973 7.25,-2.656 13.12,-6.523 17.62,-11.633 l -17.39,-17.39 c -2.4,3.289 -5.56,5.742 -9.45,7.344 -3.91,1.601 -7.9,2.402 -12.01,2.402 -4.5,0 -8.62,-0.832 -12.37,-2.481 -3.75,-1.64 -6.97,-3.925 -9.68,-6.816 -2.69,-2.91 -4.79,-6.328 -6.29,-10.285 -1.51,-3.945 -2.25,-8.27 -2.25,-12.969 0,-4.805 0.74,-9.199 2.25,-13.203 1.5,-4.004 3.57,-7.422 6.22,-10.273 2.65,-2.852 5.83,-5.079 9.53,-6.68 3.7,-1.59 7.74,-2.391 12.15,-2.391 5.09,0 9.55,0.996 13.35,2.996 3.79,2.004 6.84,4.602 9.15,7.805 l 17.85,-16.809 c -4.71,-5.398 -10.5,-9.668 -17.41,-12.82"
         style="fill:#ffffff;fill-opacity:1;fill-rule:nonzero;stroke:none"
         id="path102" /><path
         d="m 2440.88,190.371 v -45 h -25.66 v 45 l -39.89,61.199 h 31.05 l 22.64,-39.297 22.66,39.297 h 30 l -40.8,-61.199"
         style="fill:#ffffff;fill-opacity:1;fill-rule:nonzero;stroke:none"
         id="path104" /></g></g></svg>
