<?xml version="1.0" encoding="UTF-8" standalone="no"?>
<svg
   xmlns:dc="http://purl.org/dc/elements/1.1/"
   xmlns:cc="http://creativecommons.org/ns#"
   xmlns:rdf="http://www.w3.org/1999/02/22-rdf-syntax-ns#"
   xmlns:svg="http://www.w3.org/2000/svg"
   xmlns="http://www.w3.org/2000/svg"
   xmlns:sodipodi="http://sodipodi.sourceforge.net/DTD/sodipodi-0.dtd"
   xmlns:inkscape="http://www.inkscape.org/namespaces/inkscape"
   version="1.1"
   id="svg2"
   xml:space="preserve"
   width="34"
   height="32"
   viewBox="0 0 26.906668 24.826668"
   sodipodi:docname="notifications.eps"><metadata
     id="metadata8"><rdf:RDF><cc:Work
         rdf:about=""><dc:format>image/svg+xml</dc:format><dc:type
           rdf:resource="http://purl.org/dc/dcmitype/StillImage" /></cc:Work></rdf:RDF></metadata><defs
     id="defs6"><clipPath
       clipPathUnits="userSpaceOnUse"
       id="clipPath22"><path
         d="M 0,0 H 202 V 186 H 0 Z"
         id="path20" /></clipPath><clipPath
       clipPathUnits="userSpaceOnUse"
       id="clipPath28"><path
         d="m 87.5742,153.094 v 30.855 c 0,1.254 1.0274,2.285 2.2852,2.285 h 3.7226 c 1.2578,0 2.2852,-1.031 2.2852,-2.285 v -30.855 c 0,-1.258 -1.0274,-2.285 -2.2852,-2.285 h -3.7226 c -1.2578,0 -2.2852,1.027 -2.2852,2.285 z"
         id="path26" /></clipPath></defs><sodipodi:namedview
     pagecolor="#ffffff"
     bordercolor="#666666"
     borderopacity="1"
     objecttolerance="10"
     gridtolerance="10"
     guidetolerance="10"
     inkscape:pageopacity="0"
     inkscape:pageshadow="2"
     inkscape:window-width="640"
     inkscape:window-height="480"
     id="namedview4" /><g
     id="g10"
     inkscape:groupmode="layer"
     inkscape:label="ink_ext_XXXXXX"
     transform="matrix(1.3333333,0,0,-1.3333333,0,24.826667)"><g
       id="g12"
       transform="scale(0.1)"><path
         d="m 87.5742,153.094 v 30.855 c 0,1.254 1.0274,2.285 2.2852,2.285 h 3.7226 c 1.2578,0 2.2852,-1.031 2.2852,-2.285 v -30.855 c 0,-1.258 -1.0274,-2.285 -2.2852,-2.285 h -3.7226 c -1.2578,0 -2.2852,1.027 -2.2852,2.285"
         style="fill:#fff;fill-opacity:1;fill-rule:nonzero;stroke:none"
         id="path14" /><g
         id="g16"><g
           id="g18"
           clip-path="url(#clipPath22)"><g
             id="g24"
             clip-path="url(#clipPath28)"><path
               d="m 95.8672,184.648 -1.0742,1.586 h 1.0742 z"
               style="fill:#fff;fill-opacity:1;fill-rule:nonzero;stroke:none"
               id="path30" /><path
               d="m 95.8672,183.977 -1.5234,2.257 h 0.4492 l 1.0742,-1.586 v -0.671"
               style="fill:#fff;fill-opacity:1;fill-rule:nonzero;stroke:none"
               id="path32" /><path
               d="m 95.8672,183.313 -1.9727,2.921 h 0.4493 l 1.5234,-2.257 v -0.664"
               style="fill:#fff;fill-opacity:1;fill-rule:nonzero;stroke:none"
               id="path34" /><path
               d="m 95.8672,182.648 -2.4219,3.586 h 0.4492 l 1.9727,-2.921 v -0.665"
               style="fill:#fff;fill-opacity:1;fill-rule:nonzero;stroke:none"
               id="path36" /><path
               d="m 95.8672,181.984 -2.8711,4.25 h 0.4492 l 2.4219,-3.586 v -0.664"
               style="fill:#fff;fill-opacity:1;fill-rule:nonzero;stroke:none"
               id="path38" /><path
               d="m 95.8672,181.32 -3.3203,4.914 h 0.4492 l 2.8711,-4.25 v -0.664"
               style="fill:#fff;fill-opacity:1;fill-rule:nonzero;stroke:none"
               id="path40" /><path
               d="m 95.8672,180.656 -3.7695,5.578 h 0.4492 l 3.3203,-4.914 v -0.664"
               style="fill:#fff;fill-opacity:1;fill-rule:nonzero;stroke:none"
               id="path42" /><path
               d="m 95.8672,179.992 -4.2188,6.242 h 0.4493 l 3.7695,-5.578 v -0.664"
               style="fill:#fff;fill-opacity:1;fill-rule:nonzero;stroke:none"
               id="path44" /><path
               d="m 95.8672,179.328 -4.6602,6.906 h 0.4414 l 4.2188,-6.242 v -0.664"
               style="fill:#fff;fill-opacity:1;fill-rule:nonzero;stroke:none"
               id="path46" /><path
               d="m 95.8672,178.66 -5.1094,7.574 h 0.4492 l 4.6602,-6.906 v -0.668"
               style="fill:#fff;fill-opacity:1;fill-rule:nonzero;stroke:none"
               id="path48" /><path
               d="m 95.8672,177.996 -5.5586,8.238 h 0.4492 l 5.1094,-7.574 v -0.664"
               style="fill:#fff;fill-opacity:1;fill-rule:nonzero;stroke:none"
               id="path50" /><path
               d="m 95.8672,177.332 -6.0078,8.902 h 0.4492 l 5.5586,-8.238 v -0.664"
               style="fill:#fff;fill-opacity:1;fill-rule:nonzero;stroke:none"
               id="path52" /><path
               d="m 95.8672,176.668 -6.457,9.566 h 0.4492 l 6.0078,-8.902 v -0.664"
               style="fill:#fff;fill-opacity:1;fill-rule:nonzero;stroke:none"
               id="path54" /><path
               d="m 95.8672,176.004 -6.9063,10.23 h 0.4493 l 6.457,-9.566 v -0.664"
               style="fill:#fff;fill-opacity:1;fill-rule:nonzero;stroke:none"
               id="path56" /><path
               d="m 95.8672,175.34 -7.3555,10.894 h 0.4492 l 6.9063,-10.23 v -0.664"
               style="fill:#fff;fill-opacity:1;fill-rule:nonzero;stroke:none"
               id="path58" /><path
               d="m 95.8672,174.676 -7.8047,11.558 h 0.4492 l 7.3555,-10.894 v -0.664"
               style="fill:#fff;fill-opacity:1;fill-rule:nonzero;stroke:none"
               id="path60" /><path
               d="m 95.8672,174.012 -8.2539,12.222 h 0.4492 l 7.8047,-11.558 v -0.664"
               style="fill:#fff;fill-opacity:1;fill-rule:nonzero;stroke:none"
               id="path62" /><path
               d="m 95.8672,173.348 -8.293,12.281 v 0.605 h 0.0391 l 8.2539,-12.222 v -0.664"
               style="fill:#fff;fill-opacity:1;fill-rule:nonzero;stroke:none"
               id="path64" /><path
               d="m 95.8672,172.684 -8.293,12.281 v 0.664 l 8.293,-12.281 v -0.664"
               style="fill:#fff;fill-opacity:1;fill-rule:nonzero;stroke:none"
               id="path66" /><path
               d="m 95.8672,172.02 -8.293,12.281 v 0.664 l 8.293,-12.281 v -0.664"
               style="fill:#fff;fill-opacity:1;fill-rule:nonzero;stroke:none"
               id="path68" /><path
               d="m 95.8672,171.352 -8.293,12.285 v 0.664 l 8.293,-12.281 v -0.668"
               style="fill:#fff;fill-opacity:1;fill-rule:nonzero;stroke:none"
               id="path70" /><path
               d="m 95.8672,170.688 -8.293,12.281 v 0.668 l 8.293,-12.285 v -0.664"
               style="fill:#fff;fill-opacity:1;fill-rule:nonzero;stroke:none"
               id="path72" /><path
               d="m 95.8672,170.023 -8.293,12.282 v 0.664 l 8.293,-12.281 v -0.665"
               style="fill:#fff;fill-opacity:1;fill-rule:nonzero;stroke:none"
               id="path74" /><path
               d="m 95.8672,169.359 -8.293,12.282 v 0.664 l 8.293,-12.282 v -0.664"
               style="fill:#fff;fill-opacity:1;fill-rule:nonzero;stroke:none"
               id="path76" /><path
               d="m 95.8672,168.695 -8.293,12.282 v 0.664 l 8.293,-12.282 v -0.664"
               style="fill:#fff;fill-opacity:1;fill-rule:nonzero;stroke:none"
               id="path78" /><path
               d="m 95.8672,168.031 -8.293,12.282 v 0.664 l 8.293,-12.282 v -0.664"
               style="fill:#fff;fill-opacity:1;fill-rule:nonzero;stroke:none"
               id="path80" /><path
               d="m 95.8672,167.367 -8.293,12.281 v 0.665 l 8.293,-12.282 v -0.664"
               style="fill:#fff;fill-opacity:1;fill-rule:nonzero;stroke:none"
               id="path82" /><path
               d="m 95.8672,166.703 -8.293,12.281 v 0.664 l 8.293,-12.281 v -0.664"
               style="fill:#fff;fill-opacity:1;fill-rule:nonzero;stroke:none"
               id="path84" /><path
               d="m 95.8672,166.039 -8.293,12.281 v 0.664 l 8.293,-12.281 v -0.664"
               style="fill:#fff;fill-opacity:1;fill-rule:nonzero;stroke:none"
               id="path86" /><path
               d="m 95.8672,165.371 -8.293,12.285 v 0.664 l 8.293,-12.281 v -0.668"
               style="fill:#fff;fill-opacity:1;fill-rule:nonzero;stroke:none"
               id="path88" /><path
               d="m 95.8672,164.707 -8.293,12.277 v 0.672 l 8.293,-12.285 v -0.664"
               style="fill:#fff;fill-opacity:1;fill-rule:nonzero;stroke:none"
               id="path90" /><path
               d="m 95.8672,164.043 -8.293,12.277 v 0.664 l 8.293,-12.277 v -0.664"
               style="fill:#fff;fill-opacity:1;fill-rule:nonzero;stroke:none"
               id="path92" /><path
               d="m 95.8672,163.379 -8.293,12.277 v 0.664 l 8.293,-12.277 v -0.664"
               style="fill:#fff;fill-opacity:1;fill-rule:nonzero;stroke:none"
               id="path94" /><path
               d="m 95.8672,162.715 -8.293,12.277 v 0.664 l 8.293,-12.277 v -0.664"
               style="fill:#fff;fill-opacity:1;fill-rule:nonzero;stroke:none"
               id="path96" /><path
               d="m 95.8672,162.051 -8.293,12.277 v 0.664 l 8.293,-12.277 v -0.664"
               style="fill:#fff;fill-opacity:1;fill-rule:nonzero;stroke:none"
               id="path98" /><path
               d="m 95.8672,161.387 -8.293,12.277 v 0.664 l 8.293,-12.277 v -0.664"
               style="fill:#fff;fill-opacity:1;fill-rule:nonzero;stroke:none"
               id="path100" /><path
               d="M 95.8672,160.723 87.5742,173 v 0.664 l 8.293,-12.277 v -0.664"
               style="fill:#fff;fill-opacity:1;fill-rule:nonzero;stroke:none"
               id="path102" /><path
               d="m 95.8672,160.051 -8.293,12.285 V 173 l 8.293,-12.277 v -0.672"
               style="fill:#fff;fill-opacity:1;fill-rule:nonzero;stroke:none"
               id="path104" /><path
               d="m 95.8672,159.387 -8.293,12.285 v 0.664 l 8.293,-12.285 v -0.664"
               style="fill:#fff;fill-opacity:1;fill-rule:nonzero;stroke:none"
               id="path106" /><path
               d="m 95.8672,158.723 -8.293,12.285 v 0.664 l 8.293,-12.285 v -0.664"
               style="fill:#fff;fill-opacity:1;fill-rule:nonzero;stroke:none"
               id="path108" /><path
               d="m 95.8672,158.059 -8.293,12.285 v 0.664 l 8.293,-12.285 v -0.664"
               style="fill:#fff;fill-opacity:1;fill-rule:nonzero;stroke:none"
               id="path110" /><path
               d="m 95.8672,157.395 -8.293,12.281 v 0.668 l 8.293,-12.285 v -0.664"
               style="fill:#fff;fill-opacity:1;fill-rule:nonzero;stroke:none"
               id="path112" /><path
               d="m 95.8672,156.73 -8.293,12.282 v 0.664 l 8.293,-12.281 v -0.665"
               style="fill:#fff;fill-opacity:1;fill-rule:nonzero;stroke:none"
               id="path114" /><path
               d="m 95.8672,156.066 -8.293,12.282 v 0.664 l 8.293,-12.282 v -0.664"
               style="fill:#fff;fill-opacity:1;fill-rule:nonzero;stroke:none"
               id="path116" /><path
               d="m 95.8672,155.402 -8.293,12.282 v 0.664 l 8.293,-12.282 v -0.664"
               style="fill:#fff;fill-opacity:1;fill-rule:nonzero;stroke:none"
               id="path118" /><path
               d="m 95.8672,154.738 -8.293,12.282 v 0.664 l 8.293,-12.282 v -0.664"
               style="fill:#fff;fill-opacity:1;fill-rule:nonzero;stroke:none"
               id="path120" /><path
               d="m 95.8672,154.07 -8.293,12.285 v 0.665 l 8.293,-12.282 v -0.668"
               style="fill:#fff;fill-opacity:1;fill-rule:nonzero;stroke:none"
               id="path122" /><path
               d="m 95.8672,153.406 -8.293,12.282 v 0.667 l 8.293,-12.285 v -0.664"
               style="fill:#fff;fill-opacity:1;fill-rule:nonzero;stroke:none"
               id="path124" /><path
               d="m 95.8672,152.742 -8.293,12.281 v 0.665 l 8.293,-12.282 v -0.664"
               style="fill:#fff;fill-opacity:1;fill-rule:nonzero;stroke:none"
               id="path126" /><path
               d="m 95.8672,152.078 -8.293,12.281 v 0.664 l 8.293,-12.281 v -0.664"
               style="fill:#fff;fill-opacity:1;fill-rule:nonzero;stroke:none"
               id="path128" /><path
               d="m 95.8672,151.414 -8.293,12.281 v 0.664 l 8.293,-12.281 v -0.664"
               style="fill:#fff;fill-opacity:1;fill-rule:nonzero;stroke:none"
               id="path130" /><path
               d="m 95.8281,150.809 -8.2539,12.222 v 0.664 l 8.293,-12.281 v -0.605 h -0.0391"
               style="fill:#fff;fill-opacity:1;fill-rule:nonzero;stroke:none"
               id="path132" /><path
               d="m 95.3789,150.809 -7.8047,11.558 v 0.664 l 8.2539,-12.222 h -0.4492"
               style="fill:#fff;fill-opacity:1;fill-rule:nonzero;stroke:none"
               id="path134" /><path
               d="m 94.9297,150.809 -7.3555,10.894 v 0.664 l 7.8047,-11.558 h -0.4492"
               style="fill:#fff;fill-opacity:1;fill-rule:nonzero;stroke:none"
               id="path136" /><path
               d="m 94.4805,150.809 -6.9063,10.23 v 0.664 l 7.3555,-10.894 h -0.4492"
               style="fill:#fff;fill-opacity:1;fill-rule:nonzero;stroke:none"
               id="path138" /><path
               d="m 94.0313,150.809 -6.4571,9.566 v 0.664 l 6.9063,-10.23 h -0.4492"
               style="fill:#fff;fill-opacity:1;fill-rule:nonzero;stroke:none"
               id="path140" /><path
               d="m 93.582,150.809 -6.0078,8.898 v 0.668 l 6.4571,-9.566 H 93.582"
               style="fill:#fff;fill-opacity:1;fill-rule:nonzero;stroke:none"
               id="path142" /><path
               d="m 93.1328,150.809 -5.5586,8.238 v 0.66 l 6.0078,-8.898 h -0.4492"
               style="fill:#fff;fill-opacity:1;fill-rule:nonzero;stroke:none"
               id="path144" /><path
               d="m 92.6914,150.809 -5.1172,7.57 v 0.668 l 5.5586,-8.238 h -0.4414"
               style="fill:#fff;fill-opacity:1;fill-rule:nonzero;stroke:none"
               id="path146" /><path
               d="m 92.2422,150.809 -4.668,6.906 v 0.664 l 5.1172,-7.57 h -0.4492"
               style="fill:#fff;fill-opacity:1;fill-rule:nonzero;stroke:none"
               id="path148" /><path
               d="m 91.793,150.809 -4.2188,6.242 v 0.664 l 4.668,-6.906 H 91.793"
               style="fill:#fff;fill-opacity:1;fill-rule:nonzero;stroke:none"
               id="path150" /><path
               d="m 91.3438,150.809 -3.7696,5.578 v 0.664 l 4.2188,-6.242 h -0.4492"
               style="fill:#fff;fill-opacity:1;fill-rule:nonzero;stroke:none"
               id="path152" /><path
               d="m 90.8945,150.809 -3.3203,4.914 v 0.664 l 3.7696,-5.578 h -0.4493"
               style="fill:#fff;fill-opacity:1;fill-rule:nonzero;stroke:none"
               id="path154" /><path
               d="m 90.4453,150.809 -2.8711,4.25 v 0.664 l 3.3203,-4.914 h -0.4492"
               style="fill:#fff;fill-opacity:1;fill-rule:nonzero;stroke:none"
               id="path156" /><path
               d="m 89.9961,150.809 -2.4219,3.586 v 0.664 l 2.8711,-4.25 h -0.4492"
               style="fill:#fff;fill-opacity:1;fill-rule:nonzero;stroke:none"
               id="path158" /><path
               d="m 89.5469,150.809 -1.9727,2.921 v 0.665 l 2.4219,-3.586 h -0.4492"
               style="fill:#fff;fill-opacity:1;fill-rule:nonzero;stroke:none"
               id="path160" /><path
               d="m 89.0977,150.809 -1.5235,2.257 v 0.664 l 1.9727,-2.921 h -0.4492"
               style="fill:#fff;fill-opacity:1;fill-rule:nonzero;stroke:none"
               id="path162" /><path
               d="m 88.6484,150.809 -1.0742,1.586 v 0.671 l 1.5235,-2.257 h -0.4493"
               style="fill:#fff;fill-opacity:1;fill-rule:nonzero;stroke:none"
               id="path164" /><path
               d="m 87.5742,152.395 1.0742,-1.586 h -1.0742 z"
               style="fill:#fff;fill-opacity:1;fill-rule:nonzero;stroke:none"
               id="path166" /></g></g></g><path
         d="m 22.6992,38.8789 c -6.9765,0 -12.6523,-6.4609 -12.6523,-14.4141 0,-7.9492 5.6758,-14.414 12.6523,-14.414 H 160.746 c 6.973,0 12.649,6.4648 12.649,14.414 0,7.9532 -5.676,14.4141 -12.649,14.4141 h -8.191 v 70.9691 c 0,19.812 -14.453,35.925 -32.219,35.925 H 63.1055 c -17.7657,0 -32.2227,-16.113 -32.2227,-35.925 V 38.8789 Z M 160.746,0.00390625 H 22.6992 C 10.1836,0.00390625 0,10.9688 0,24.4648 0,37.2773 9.18359,47.8242 20.8359,48.8516 v 60.9964 c 0,25.347 18.9571,45.976 42.2696,45.976 h 57.2305 c 23.312,0 42.266,-20.629 42.266,-45.976 V 48.8516 c 11.652,-1.0274 20.839,-11.5743 20.839,-24.3868 0,-13.496 -10.183,-24.46089375 -22.695,-24.46089375"
         style="fill:#fff;fill-opacity:1;fill-rule:nonzero;stroke:none"
         id="path168" /><path
         d="m 172.379,118.301 c 0,-0.692 -0.02,-1.207 -0.07,-1.555 -0.039,-0.348 -0.188,-0.742 -0.418,-1.191 -0.246,-0.45 -0.649,-0.766 -1.223,-0.942 -0.566,-0.179 -1.34,-0.273 -2.297,-0.273 -0.926,0 -1.676,0.094 -2.242,0.273 -0.578,0.176 -0.977,0.485 -1.223,0.922 -0.234,0.43 -0.379,0.84 -0.418,1.211 -0.05,0.375 -0.07,0.922 -0.07,1.645 v 16.066 l -0.586,-0.543 c -1.23,-0.926 -2.258,-1.394 -3.066,-1.394 -0.926,0 -1.797,0.453 -2.61,1.351 -1.07,1.199 -1.621,2.223 -1.621,3.063 0,0.773 0.551,1.648 1.621,2.605 l 7.383,6.66 0.141,0.094 c 0.781,0.777 1.687,1.168 2.742,1.168 0.781,0 1.426,-0.074 1.933,-0.227 0.508,-0.152 0.899,-0.32 1.172,-0.515 0.262,-0.196 0.469,-0.508 0.606,-0.949 0.137,-0.434 0.207,-0.79 0.226,-1.079 0.02,-0.285 0.02,-0.726 0.02,-1.324 z m -5.352,47.375 c -19.211,0 -34.777,-15.571 -34.777,-34.774 0,-19.211 15.566,-34.7809 34.777,-34.7809 19.207,0 34.786,15.5699 34.786,34.7809 0,19.203 -15.579,34.774 -34.786,34.774"
         style="fill:#fff;fill-opacity:1;fill-rule:nonzero;stroke:none"
         id="path170" /></g></g></svg>
