<?xml version="1.0" encoding="UTF-8" standalone="no"?>
<svg
   xmlns:dc="http://purl.org/dc/elements/1.1/"
   xmlns:cc="http://creativecommons.org/ns#"
   xmlns:rdf="http://www.w3.org/1999/02/22-rdf-syntax-ns#"
   xmlns:svg="http://www.w3.org/2000/svg"
   xmlns="http://www.w3.org/2000/svg"
   xmlns:sodipodi="http://sodipodi.sourceforge.net/DTD/sodipodi-0.dtd"
   xmlns:inkscape="http://www.inkscape.org/namespaces/inkscape"
   version="1.1"
   id="svg2"
   xml:space="preserve"
   width="32"
   height="32"
   viewBox="0 0 28.373333 28.373333"
   sodipodi:docname="options.eps"><metadata
     id="metadata8"><rdf:RDF><cc:Work
         rdf:about=""><dc:format>image/svg+xml</dc:format><dc:type
           rdf:resource="http://purl.org/dc/dcmitype/StillImage" /></cc:Work></rdf:RDF></metadata><defs
     id="defs6" /><sodipodi:namedview
     pagecolor="#ffffff"
     bordercolor="#666666"
     borderopacity="1"
     objecttolerance="10"
     gridtolerance="10"
     guidetolerance="10"
     inkscape:pageopacity="0"
     inkscape:pageshadow="2"
     inkscape:window-width="640"
     inkscape:window-height="480"
     id="namedview4" /><g
     id="g10"
     inkscape:groupmode="layer"
     inkscape:label="ink_ext_XXXXXX"
     transform="matrix(1.3333333,0,0,-1.3333333,0,28.373333)"><g
       id="g12"
       transform="scale(0.1)"><path
         d="m 106.418,151.387 c -11.5157,0 -23.0391,-4.383 -31.8086,-13.149 -8.5039,-8.5 -13.1836,-19.804 -13.1836,-31.816 0,-12.0197 4.6797,-23.3204 13.1836,-31.8165 16.9961,-17.0117 46.6326,-17.0117 63.6246,0 17.539,17.539 17.539,46.0855 0,63.6325 -8.769,8.766 -20.293,13.149 -31.816,13.149 z m 0,-99.9651 c -14.6875,0 -28.4961,5.7226 -38.8789,16.1133 -10.3907,10.3906 -16.1133,24.1992 -16.1133,38.8868 0,14.683 5.7226,28.5 16.1133,38.883 21.4336,21.433 56.3129,21.433 77.7659,0 v 0 c 21.437,-21.442 21.437,-56.3323 0,-77.7698 -10.379,-10.3907 -24.2,-16.1133 -38.887,-16.1133 z M 67.9141,18.4063 95.7656,10.9453 c 4.3244,3.6719 8.9844,8.9922 10.1054,12.5781 1.106,3.5039 4.133,6.2188 8.106,7.2852 l 23.703,6.3555 c 3.965,1.0937 7.957,0.2148 10.652,-2.2657 2.766,-2.5273 9.465,-4.8125 15.059,-5.8398 l 20.382,20.3906 c -1.015,5.5977 -3.3,12.2969 -5.839,15.0508 -2.493,2.7031 -3.321,6.6992 -2.258,10.6641 l 6.347,23.6992 c 1.067,3.9647 3.782,6.9957 7.286,8.0977 3.586,1.133 8.918,5.789 12.589,10.121 l -7.453,27.84 c -5.359,1.926 -12.293,3.308 -15.957,2.473 -3.621,-0.793 -7.461,0.484 -10.371,3.378 l -17.344,17.348 c -2.918,2.906 -4.168,6.781 -3.378,10.352 0.812,3.664 -0.555,10.609 -2.469,15.972 l -27.844,7.457 c -4.324,-3.683 -9.004,-9.019 -10.117,-12.589 -1.102,-3.504 -4.137,-6.227 -8.1095,-7.286 L 75.1563,175.68 c -4.0157,-1.059 -7.961,-0.231 -10.6563,2.258 -2.75,2.531 -9.4609,4.816 -15.0586,5.839 L 29.0625,163.391 c 1.0195,-5.59 3.3047,-12.297 5.8398,-15.043 2.4883,-2.707 3.3321,-6.707 2.254,-10.68 l -6.3516,-23.703 c -1.0586,-3.961 -3.7734,-6.996 -7.2813,-8.094 -3.582,-1.117 -8.9101,-5.781 -12.582,-10.1015 L 18.3906,67.918 c 5.3594,-1.9141 12.2774,-3.3203 15.9571,-2.4805 3.5664,0.8008 7.4531,-0.4609 10.3515,-3.3516 L 62.0625,44.7148 C 64.9688,41.832 66.2344,37.9453 65.4375,34.3711 64.6289,30.6992 66,23.7461 67.9141,18.4063 Z M 97.9727,-0.00390625 60.5313,10.0273 l -0.961,2.2344 c -2.1094,4.9727 -5.6406,16.4258 -3.8867,24.2774 0,0.0898 -0.1563,0.5781 -0.6758,1.0937 l -17.3633,17.375 c -0.5156,0.5078 -1.0195,0.6641 -1.1484,0.6641 v 0 c -7.8398,-1.711 -19.25,1.7851 -24.2266,3.8945 L 10.0234,60.5234 0,97.9766 1.46484,99.9141 c 3.23438,4.3129 11.39066,13.0939 19.05466,15.4959 0.0899,0.051 0.4297,0.43 0.6328,1.141 L 27.5,140.27 c 0.1953,0.726 0.0781,1.226 0.0195,1.339 -5.4062,5.871 -8.0859,17.563 -8.7578,22.918 l -0.2929,2.418 27.4179,27.422 2.418,-0.297 c 5.3555,-0.664 17.0469,-3.347 22.9648,-8.777 0.0782,-0.027 0.5977,-0.137 1.3008,0.039 l 23.7031,6.356 c 0.7188,0.195 1.1016,0.535 1.1602,0.644 2.3945,7.637 11.1714,15.801 15.5004,19.051 l 1.941,1.461 37.434,-10.031 0.957,-2.247 c 2.109,-4.953 5.632,-16.418 3.886,-24.257 0,-0.09 0.157,-0.59 0.684,-1.121 l 17.352,-17.348 c 0.527,-0.524 1.015,-0.68 1.152,-0.68 v 0 c 7.844,1.727 19.258,-1.797 24.23,-3.898 l 2.246,-0.949 10.02,-37.442 -1.465,-1.945 c -3.223,-4.305 -11.387,-13.0901 -19.055,-15.508 -0.086,-0.0469 -0.437,-0.4297 -0.632,-1.1328 l -6.348,-23.7305 c -0.195,-0.7031 -0.09,-1.2109 -0.02,-1.3086 5.411,-5.8867 8.086,-17.5781 8.758,-22.9297 l 0.293,-2.4219 -27.41,-27.4101 -2.414,0.2929 c -5.359,0.6524 -17.051,3.3086 -22.977,8.7579 -0.078,0.0507 -0.586,0.1484 -1.308,-0.0274 l -23.692,-6.3594 c -0.722,-0.1953 -1.105,-0.5351 -1.164,-0.6445 C 113.012,12.8594 104.223,4.70313 99.9141,1.46094 l -1.9414,-1.46484625"
         style="fill:#fff;fill-opacity:1;fill-rule:nonzero;stroke:none"
         id="path14" /></g></g></svg>
