<?xml version="1.0" encoding="UTF-8" standalone="no"?>
<svg
   xmlns:dc="http://purl.org/dc/elements/1.1/"
   xmlns:cc="http://creativecommons.org/ns#"
   xmlns:rdf="http://www.w3.org/1999/02/22-rdf-syntax-ns#"
   xmlns:svg="http://www.w3.org/2000/svg"
   xmlns="http://www.w3.org/2000/svg"
   xmlns:sodipodi="http://sodipodi.sourceforge.net/DTD/sodipodi-0.dtd"
   xmlns:inkscape="http://www.inkscape.org/namespaces/inkscape"
   version="1.1"
   id="svg2"
   xml:space="preserve"
   width="195.29333"
   height="363.61334"
   viewBox="0 0 195.29333 363.61334"
   sodipodi:docname="phone.eps"><metadata
     id="metadata8"><rdf:RDF><cc:Work
         rdf:about=""><dc:format>image/svg+xml</dc:format><dc:type
           rdf:resource="http://purl.org/dc/dcmitype/StillImage" /></cc:Work></rdf:RDF></metadata><defs
     id="defs6"><clipPath
       clipPathUnits="userSpaceOnUse"
       id="clipPath32"><path
         d="M 1439.93,281.43 H 63.1641 v 2128.78 h 5.1132 V 284.219 h 1368.8627 2.79 v -2.789"
         id="path30" /></clipPath><linearGradient
       x1="0"
       y1="0"
       x2="1"
       y2="0"
       gradientUnits="userSpaceOnUse"
       gradientTransform="matrix(1376.77,0,0,-1376.77,63.164,1345.82)"
       spreadMethod="pad"
       id="linearGradient44"><stop
         style="stop-opacity:1;stop-color:#dedfdf"
         offset="0"
         id="stop34" /><stop
         style="stop-opacity:1;stop-color:#dedfdf"
         offset="0.160321"
         id="stop36" /><stop
         style="stop-opacity:1;stop-color:#dedfdf"
         offset="0.183417"
         id="stop38" /><stop
         style="stop-opacity:1;stop-color:#938d8d"
         offset="0.801508"
         id="stop40" /><stop
         style="stop-opacity:1;stop-color:#938d8d"
         offset="1"
         id="stop42" /></linearGradient><clipPath
       clipPathUnits="userSpaceOnUse"
       id="clipPath54"><path
         d="m 1439.93,284.219 h -2.79 v 2.793 -2.793 H 68.2773 V 2410.21 H 1439.93 V 284.219 M 68.75,2404.63 V 287.012 h 1365.6 V 2404.63 H 68.75"
         id="path52" /></clipPath><linearGradient
       x1="0"
       y1="0"
       x2="1"
       y2="0"
       gradientUnits="userSpaceOnUse"
       gradientTransform="matrix(1376.77,0,0,-1376.77,63.164,1345.82)"
       spreadMethod="pad"
       id="linearGradient66"><stop
         style="stop-opacity:1;stop-color:#585e66"
         offset="0"
         id="stop56" /><stop
         style="stop-opacity:1;stop-color:#585e66"
         offset="0.160321"
         id="stop58" /><stop
         style="stop-opacity:1;stop-color:#585e66"
         offset="0.183417"
         id="stop60" /><stop
         style="stop-opacity:1;stop-color:#2f343a"
         offset="0.801508"
         id="stop62" /><stop
         style="stop-opacity:1;stop-color:#2f343a"
         offset="1"
         id="stop64" /></linearGradient><clipPath
       clipPathUnits="userSpaceOnUse"
       id="clipPath80"><path
         d="m 871.223,2532.87 h -216.52 c -4.183,0 -7.601,3.43 -7.601,7.61 v 10.31 c 0,4.18 3.418,7.6 7.601,7.6 h 216.52 c 4.179,0 7.597,-3.42 7.597,-7.6 v -10.31 c 0,-4.18 -3.418,-7.61 -7.597,-7.61 z"
         id="path78" /></clipPath><linearGradient
       x1="0"
       y1="0"
       x2="1"
       y2="0"
       gradientUnits="userSpaceOnUse"
       gradientTransform="matrix(1.83908,-121.372,-121.372,-1.83908,761.652,2631.97)"
       spreadMethod="pad"
       id="linearGradient92"><stop
         style="stop-opacity:1;stop-color:#3c3a3d"
         offset="0"
         id="stop82" /><stop
         style="stop-opacity:1;stop-color:#3c3a3d"
         offset="0.198492"
         id="stop84" /><stop
         style="stop-opacity:1;stop-color:#bcbdbd"
         offset="0.816583"
         id="stop86" /><stop
         style="stop-opacity:1;stop-color:#bcbdbd"
         offset="0.839679"
         id="stop88" /><stop
         style="stop-opacity:1;stop-color:#bcbdbd"
         offset="1"
         id="stop90" /></linearGradient><radialGradient
       fx="-0.234217"
       fy="-0.972184"
       cx="0"
       cy="0"
       r="1"
       gradientUnits="userSpaceOnUse"
       gradientTransform="matrix(39.7176,-8.63018,-8.21699,-41.7154,1022.48,2609.65)"
       id="radialGradient122"><stop
         style="stop-opacity:1;stop-color:#1f2952"
         offset="0"
         id="stop112" /><stop
         style="stop-opacity:1;stop-color:#1f254d"
         offset="0.246231"
         id="stop114" /><stop
         style="stop-opacity:1;stop-color:#142938"
         offset="0.570352"
         id="stop116" /><stop
         style="stop-opacity:1;stop-color:#292b63"
         offset="0.992462"
         id="stop118" /><stop
         style="stop-opacity:1;stop-color:#292b63"
         offset="1"
         id="stop120" /></radialGradient><radialGradient
       fx="-0.234217"
       fy="-0.972184"
       cx="0"
       cy="0"
       r="1"
       gradientUnits="userSpaceOnUse"
       gradientTransform="matrix(39.7176,-8.63018,-8.21699,-41.7154,1022.48,2609.65)"
       id="radialGradient136"><stop
         style="stop-opacity:1;stop-color:#28419d"
         offset="0"
         id="stop126" /><stop
         style="stop-opacity:1;stop-color:#2a3c99"
         offset="0.246231"
         id="stop128" /><stop
         style="stop-opacity:1;stop-color:#206db3"
         offset="0.570352"
         id="stop130" /><stop
         style="stop-opacity:1;stop-color:#333696"
         offset="0.992462"
         id="stop132" /><stop
         style="stop-opacity:1;stop-color:#333696"
         offset="1"
         id="stop134" /></radialGradient><radialGradient
       fx="-0.234217"
       fy="-0.972184"
       cx="0"
       cy="0"
       r="1"
       gradientUnits="userSpaceOnUse"
       gradientTransform="matrix(39.7176,-8.63018,-8.21699,-41.7154,1022.48,2609.65)"
       id="radialGradient152"><stop
         style="stop-opacity:1;stop-color:#233169"
         offset="0"
         id="stop142" /><stop
         style="stop-opacity:1;stop-color:#232d64"
         offset="0.246231"
         id="stop144" /><stop
         style="stop-opacity:1;stop-color:#193d5b"
         offset="0.570352"
         id="stop146" /><stop
         style="stop-opacity:1;stop-color:#2d2f73"
         offset="0.992462"
         id="stop148" /><stop
         style="stop-opacity:1;stop-color:#2d2f73"
         offset="1"
         id="stop150" /></radialGradient><clipPath
       clipPathUnits="userSpaceOnUse"
       id="clipPath180"><path
         d="M 700.875,2335.12 H 813.93 v 27.9297 H 700.875 Z"
         id="path178" /></clipPath></defs><sodipodi:namedview
     pagecolor="#ffffff"
     bordercolor="#666666"
     borderopacity="1"
     objecttolerance="10"
     gridtolerance="10"
     guidetolerance="10"
     inkscape:pageopacity="0"
     inkscape:pageshadow="2"
     inkscape:window-width="640"
     inkscape:window-height="480"
     id="namedview4" /><g
     id="g10"
     inkscape:groupmode="layer"
     inkscape:label="ink_ext_XXXXXX"
     transform="matrix(1.3333333,0,0,-1.3333333,0,363.61333)"><g
       id="g12"
       transform="scale(0.1)"><path
         d="M 1294.19,0.890625 H 212.57 C 119.848,0.890625 44.6875,76.0586 44.6875,168.77 v 2384.71 c 0,92.72 75.1605,167.88 167.8825,167.88 h 1081.62 c 92.72,0 167.89,-75.16 167.89,-167.88 V 168.77 c 0,-92.7114 -75.17,-167.879375 -167.89,-167.879375"
         style="fill:#fafdff;fill-opacity:1;fill-rule:nonzero;stroke:none"
         id="path14" /><path
         d="M 1295.61,2721.49 H 214.746 c -92.93,0 -168.2655,-75.33 -168.2655,-168.26 v -15.71 c 0,92.94 75.3355,168.27 168.2655,168.27 H 1295.61 c 92.93,0 168.26,-75.33 168.26,-168.27 v 15.71 c 0,92.93 -75.33,168.26 -168.26,168.26"
         style="fill:#ffffff;fill-opacity:1;fill-rule:nonzero;stroke:none"
         id="path16" /><path
         d="m 1330.63,4.53906 c 13.43,3.13282 26.27,7.82034 38.3,13.85934 8.99,4.4805 17.52,9.7422 25.5,15.6914 31.8,23.5391 55.26,57.6407 65.12,97.0392 C 1444.91,67.7383 1394.45,18.0586 1330.63,4.53906"
         style="fill:#c1bfc9;fill-opacity:1;fill-rule:nonzero;stroke:none"
         id="path18" /><path
         d="M 1291.02,11.3203 H 211.148 C 131.402,11.3203 64.9063,68.8789 51.3594,144.48 69.4453,71.0508 135.734,16.5898 214.746,16.5898 H 1295.61 c 37.75,0 72.61,12.4415 100.68,33.4415 -28.36,-24.1329 -65.14,-38.711 -105.27,-38.711 m 77.91,7.0781 c 8.97,4.5118 17.5,9.7618 25.5,15.6914 -7.98,-5.9492 -16.51,-11.2109 -25.5,-15.6914"
         style="fill:#bebec9;fill-opacity:1;fill-rule:nonzero;stroke:none"
         id="path20" /><path
         d="m 211.148,2715.73 c -89.5,0 -162.3121,-72.52 -162.3121,-161.64 V 172.961 C 48.8359,83.8281 121.648,11.3203 211.148,11.3203 H 1291.02 c 89.49,0 162.3,72.5078 162.3,161.6407 V 2554.09 c 0,89.12 -72.81,161.64 -162.3,161.64 H 211.148 M 1291.02,0 H 211.148 C 115.371,0 37.4609,77.5781 37.4609,172.961 V 2554.09 c 0,95.37 77.9101,172.96 173.6871,172.96 H 1291.02 c 95.76,0 173.67,-77.59 173.67,-172.96 V 172.961 C 1464.69,77.5781 1386.78,0 1291.02,0"
         style="fill:#f0f8fd;fill-opacity:1;fill-rule:nonzero;stroke:none"
         id="path22" /><path
         d="m 68.2773,284.219 h 1373.79 v 2127.75 H 68.2773 Z"
         style="fill:#263038;fill-opacity:1;fill-rule:nonzero;stroke:none"
         id="path24" /><g
         id="g26"><g
           id="g28"
           clip-path="url(#clipPath32)"><path
             d="M 1439.93,281.43 H 63.1641 v 2128.78 h 5.1132 V 284.219 h 1368.8627 2.79 v -2.789"
             style="fill:url(#linearGradient44);fill-opacity:1;fill-rule:nonzero;stroke:none"
             id="path46" /></g></g><g
         id="g48"><g
           id="g50"
           clip-path="url(#clipPath54)"><path
             d="m 1439.93,284.219 h -2.79 v 2.793 -2.793 H 68.2773 V 2410.21 H 1439.93 V 284.219 M 68.75,2404.63 V 287.012 h 1365.6 V 2404.63 H 68.75"
             style="fill:url(#linearGradient66);fill-opacity:1;fill-rule:nonzero;stroke:none"
             id="path68" /></g></g><path
         d="m 871.223,2532.87 h -216.52 c -4.183,0 -7.601,3.43 -7.601,7.61 v 10.31 c 0,4.18 3.418,7.6 7.601,7.6 h 216.52 c 4.179,0 7.597,-3.42 7.597,-7.6 v -10.31 c 0,-4.18 -3.418,-7.61 -7.597,-7.61"
         style="fill:#2a292d;fill-opacity:1;fill-rule:nonzero;stroke:none"
         id="path70" /><path
         d="m 871.223,2532.87 h -216.52 c -4.183,0 -7.601,3.43 -7.601,7.61 v 10.31 c 0,4.18 3.418,7.6 7.601,7.6 h 216.52 c 4.179,0 7.597,-3.42 7.597,-7.6 v -10.31 c 0,-4.18 -3.418,-7.61 -7.597,-7.61"
         style="fill:#3b3c45;fill-opacity:1;fill-rule:nonzero;stroke:none"
         id="path72" /><g
         id="g74"><g
           id="g76"
           clip-path="url(#clipPath80)"><path
             d="m 871.223,2532.87 h -216.52 c -4.183,0 -7.601,3.43 -7.601,7.61 v 10.31 c 0,4.18 3.418,7.6 7.601,7.6 h 216.52 c 4.179,0 7.597,-3.42 7.597,-7.6 v -10.31 c 0,-4.18 -3.418,-7.61 -7.597,-7.61"
             style="fill:url(#linearGradient92);fill-opacity:1;fill-rule:nonzero;stroke:none"
             id="path94" /></g></g><path
         d="M 871.406,2558.39 H 654.52 c -4.079,0 -7.418,-3.5 -7.418,-7.79 v -3.77 c 0,4.29 3.339,7.8 7.418,7.8 h 216.886 c 4.082,0 7.414,-3.51 7.414,-7.8 v 3.77 c 0,4.29 -3.332,7.79 -7.414,7.79"
         style="fill:#606473;fill-opacity:1;fill-rule:nonzero;stroke:none"
         id="path96" /><path
         d="M 871.406,2532.87 H 654.52 c -4.079,0 -7.418,3.51 -7.418,7.79 v -3.76 c 0,-4.29 3.339,-7.79 7.418,-7.79 h 216.886 c 4.082,0 7.414,3.5 7.414,7.79 v 3.76 c 0,-4.28 -3.332,-7.79 -7.414,-7.79"
         style="fill:#606473;fill-opacity:1;fill-rule:nonzero;stroke:none"
         id="path98" /><path
         d="M 907.031,99.8984 H 633.184 c -11.75,0 -21.371,9.6216 -21.371,21.3826 v 21.078 c 0,11.75 9.621,21.36 21.371,21.36 h 273.847 c 11.758,0 21.367,-9.61 21.367,-21.36 v -21.078 c 0,-11.761 -9.609,-21.3826 -21.367,-21.3826"
         style="fill:#575b6e;fill-opacity:1;fill-rule:nonzero;stroke:none"
         id="path100" /><path
         d="m 632.668,163.719 c -11.008,0 -19.527,-10.36 -19.527,-21.449 v -20.899 c 0,-11.09 8.957,-20.121 19.957,-20.121 h 274.011 c 11.008,0 19.961,9.031 19.961,20.121 v 20.899 c 0,11.089 -8.953,20.121 -19.961,20.121 l -274.441,1.328 M 907.109,98.5703 H 633.098 c -12.473,0 -22.618,10.2187 -22.618,22.8007 v 20.899 c 0,12.582 10.145,22.8 22.618,22.8 h 274.011 c 12.481,0 22.629,-10.218 22.629,-22.8 v -20.899 c 0,-12.582 -10.148,-22.8007 -22.629,-22.8007"
         style="fill:#707589;fill-opacity:1;fill-rule:nonzero;stroke:none"
         id="path102" /><path
         d="m 381.543,109.941 h -75.719 c -0.863,0 -1.566,0.739 -1.566,1.637 0,0.91 0.703,1.652 1.566,1.652 h 75.719 c 2.035,0 4.316,4.09 4.316,9.559 v 10.91 c 0,5.473 -2.281,9.563 -4.316,9.563 h -42.309 l 4.645,-4.594 0.062,-2.328 -1.136,-0.512 -1.078,0.442 -9.973,8.64 10,8.36 2.211,-0.11 -0.113,-2.332 -4.5,-4.269 h 42.191 c 4.176,0 7.445,-5.649 7.445,-12.86 v -10.91 c 0,-7.199 -3.269,-12.848 -7.445,-12.848"
         style="fill:#cdcbcc;fill-opacity:1;fill-rule:nonzero;stroke:none"
         id="path104" /><path
         d="m 1213.5,108.469 h -39.92 v 31.082 h 2.79 V 111.41 h 34.33 v 28.141 h 2.8 v -31.082 m -1.35,34.019 h -0.1 l 0.05,0.051 0.05,-0.051 m -37.13,0 h -0.1 l 0.05,0.051 0.05,-0.051"
         style="fill:#cdcbcc;fill-opacity:1;fill-rule:nonzero;stroke:none"
         id="path106" /><path
         d="m 1230.07,139.551 h -24.31 l -1.39,1.469 1.39,1.468 h 6.29 0.1 11.2 l -29.85,31.571 -29.7,-31.571 h 11.12 0.1 5.79 l 1.4,-1.468 -1.4,-1.469 h -4.44 -2.79 -16.47 l 36.39,38.679 36.57,-38.679"
         style="fill:#cdcbcc;fill-opacity:1;fill-rule:nonzero;stroke:none"
         id="path108" /><path
         d="m 994.668,2609.66 c 0,16.12 12.452,29.2 27.812,29.2 15.35,0 27.8,-13.08 27.8,-29.2 0,-16.13 -12.45,-29.21 -27.8,-29.21 -15.36,0 -27.812,13.08 -27.812,29.21"
         style="fill:#ffffff;fill-opacity:1;fill-rule:nonzero;stroke:none"
         id="path110" /><path
         d="m 1022.5,2584.97 c -1.58,0 -3.18,0.17 -4.78,0.51 -3.07,0.67 -5.88,1.94 -8.33,3.67 -5.13,7.06 -8.56,21.5 -0.33,31.82 4.81,6.03 11.05,10.08 18.22,10.08 3.42,0 7.06,-0.92 10.86,-3 v 0 0 c -0.26,0.24 -0.52,0.48 -0.78,0.71 6.54,-5.64 9.96,-14.8 8.13,-24.1 -2.3,-11.67 -12.08,-19.69 -22.99,-19.69 m 3.21,44.54 c -0.59,0 -1.18,-0.06 -1.78,-0.18 -6.8,-1.35 -5.26,-8.51 -5.26,-8.51 0,0 1.3,-7.44 12.16,-8.28 0.86,-0.06 1.65,-0.09 2.38,-0.09 8.51,0 8.51,4.26 5.97,7.72 -2.51,3.42 -7.47,9.34 -13.47,9.34 M 999,2608.43 c -0.094,2.04 0.051,4.13 0.465,6.23 2.305,11.65 12.085,19.68 22.985,19.68 0.54,0 1.08,-0.02 1.63,-0.06 -0.53,0.04 -1.06,0.05 -1.6,0.05 -12.9,0 -23.503,-11.13 -23.503,-24.67 0,-0.41 0.007,-0.82 0.023,-1.23"
         style="fill:url(#radialGradient122);fill-opacity:1;fill-rule:nonzero;stroke:none"
         id="path124" /><path
         d="m 1033.21,2612.45 c -0.73,0 -1.52,0.03 -2.38,0.09 -10.86,0.84 -12.16,8.28 -12.16,8.28 0,0 -1.54,7.16 5.26,8.51 0.6,0.12 1.19,0.18 1.78,0.18 6,0 10.96,-5.92 13.47,-9.34 2.54,-3.46 2.54,-7.72 -5.97,-7.72"
         style="fill:url(#radialGradient136);fill-opacity:1;fill-rule:nonzero;stroke:none"
         id="path138" /><path
         d="m 1009.96,2588.4 c -6.61,4.06 -10.608,11.51 -10.96,20.03 0.367,-7.82 4.28,-14.98 10.39,-19.28 0.19,-0.26 0.38,-0.51 0.57,-0.75 m 27.4,40.36 c -2.84,2.44 -6.27,4.22 -10.12,5.06 -1.06,0.23 -2.12,0.38 -3.16,0.46 5.04,-0.35 9.62,-2.33 13.28,-5.52"
         style="fill:#ffffff;fill-opacity:1;fill-rule:nonzero;stroke:none"
         id="path140" /><path
         d="m 1009.39,2589.15 c -6.11,4.3 -10.023,11.46 -10.39,19.28 -0.016,0.41 -0.023,0.82 -0.023,1.23 0,13.54 10.603,24.67 23.503,24.67 0.54,0 1.07,-0.01 1.6,-0.05 1.04,-0.08 2.1,-0.23 3.16,-0.46 3.85,-0.84 7.28,-2.62 10.12,-5.06 0.26,-0.23 0.52,-0.47 0.78,-0.71 -3.8,2.08 -7.44,3 -10.86,3 -7.17,0 -13.41,-4.05 -18.22,-10.08 -8.23,-10.32 -4.8,-24.76 0.33,-31.82"
         style="fill:url(#radialGradient152);fill-opacity:1;fill-rule:nonzero;stroke:none"
         id="path154" /><path
         d="m 927.07,139.852 c 0,11.75 -9.539,21.367 -21.191,21.367 H 634.332 c -11.656,0 -21.191,-9.617 -21.191,-21.367 v 2.418 c 0,2.101 0.304,4.171 0.871,6.148 2.562,8.672 10.472,15.082 19.828,15.301 l 273.269,-1.328 c 11.008,0 19.961,-9.032 19.961,-20.121 v -2.418"
         style="fill:#8d8c99;fill-opacity:1;fill-rule:nonzero;stroke:none"
         id="path156" /><path
         d="m 927.07,139.852 v 0 2.418 c 0,11.089 -8.953,20.121 -19.961,20.121 l -273.269,1.328 c 0.164,0 0.328,0 0.492,0 h 271.547 c 11.652,0 21.191,-9.61 21.191,-21.36 v -2.507 m -313.929,2.418 v 0.089 c 0,2.102 0.304,4.129 0.871,6.059 -0.567,-1.977 -0.871,-4.047 -0.871,-6.148"
         style="fill:#a19fad;fill-opacity:1;fill-rule:nonzero;stroke:none"
         id="path158" /><path
         d="m 37.4609,2326.63 c 0,0 -32.47262,-12.2 -34.53512,-20.87 -3.632811,-15.29 -2.8749987,-73.87 -2.83203,-77.08 0.199219,-13.35 37.36715,-61.01 37.36715,-61.01 v 158.96"
         style="fill:#f0f8fd;fill-opacity:1;fill-rule:nonzero;stroke:none"
         id="path160" /><path
         d="m 37.4609,2053.75 c 0,0 -35.51168,-15.5 -36.761681,-29.4 -1.503907,-16.66 -0.109375,-72.96 -0.117188,-76.37 -0.078125,-35.09 36.878869,-50.14 36.878869,-50.14 v 155.91"
         style="fill:#f0f8fd;fill-opacity:1;fill-rule:nonzero;stroke:none"
         id="path162" /><path
         d="m 129.703,2321.14 h -12.844 v 40.87 h 12.844 v -40.87"
         style="fill:#c6cbd3;fill-opacity:1;fill-rule:nonzero;stroke:none"
         id="path164" /><path
         d="m 148.824,2321.14 h -11.265 v 28.56 h 11.265 v -28.56"
         style="fill:#c6cbd3;fill-opacity:1;fill-rule:nonzero;stroke:none"
         id="path166" /><path
         d="m 167.691,2321.14 h -9.699 v 20.43 h 9.699 v -20.43"
         style="fill:#c6cbd3;fill-opacity:1;fill-rule:nonzero;stroke:none"
         id="path168" /><path
         d="m 1374.29,2329.58 h -37.12 v 24.78 h 37.12 v -7.94 h 5.4 v -7.95 h -5.4 v -8.89 m -10.25,22.24 v -19.25 h 6.23 v 19.25 h -6.23"
         style="fill:#87888e;fill-opacity:1;fill-rule:nonzero;stroke:none"
         id="path170" /><path
         d="m 1364.04,2332.57 h 6.2305 v 19.2539 h -6.2305 z"
         style="fill:#82868e;fill-opacity:1;fill-rule:nonzero;stroke:none"
         id="path172" /><g
         id="g174"><g
           id="g176"
           clip-path="url(#clipPath180)"><path
             d="M 700.875,2335.12 H 813.93 v 27.9297 H 700.875 Z"
             style="fill:#263038;fill-opacity:1;fill-rule:nonzero;stroke:none"
             id="path182" /><g
             id="g184"
             transform="scale(10)"><text
               transform="matrix(1,0,0,-1,69.9086,233.541)"
               style="font-variant:normal;font-weight:normal;font-size:3.80907px;font-family:Lato;-inkscape-font-specification:Lato-Regular;writing-mode:lr-tb;fill:#979aa1;fill-opacity:1;fill-rule:nonzero;stroke:none"
               id="text188"><tspan
                 x="0 2.2092607 4.4185214 5.3936429 6.3459105 7.3210325 9.5302935"
                 y="0"
                 sodipodi:role="line"
                 id="tspan186">20 : 45</tspan></text></g></g></g></g></g></svg>
